<svg width="16" height="10" viewBox="0 0 16 10" fill="none" xmlns="http://www.w3.org/2000/svg">
<path d="M4.50896 3.69096C4.50896 3.88785 4.53024 4.0475 4.56749 4.16457C4.61006 4.28164 4.66328 4.40935 4.73778 4.54771C4.76438 4.59028 4.77503 4.63285 4.77503 4.6701C4.77503 4.72332 4.7431 4.77653 4.67392 4.82975L4.33867 5.05325C4.29078 5.08517 4.24288 5.10114 4.20031 5.10114C4.1471 5.10114 4.09388 5.07453 4.04067 5.02664C3.96617 4.94682 3.90231 4.86167 3.8491 4.77653C3.79588 4.68607 3.74267 4.58496 3.68413 4.46257C3.26906 4.95214 2.74756 5.19692 2.11963 5.19692C1.67263 5.19692 1.3161 5.06921 1.05535 4.81378C0.794596 4.55835 0.66156 4.21778 0.66156 3.79207C0.66156 3.33975 0.821203 2.97257 1.14581 2.69585C1.47042 2.41914 1.90145 2.28078 2.44956 2.28078C2.63049 2.28078 2.81674 2.29674 3.01363 2.32335C3.21053 2.34996 3.41274 2.39253 3.6256 2.44042V2.05196C3.6256 1.64753 3.54045 1.36549 3.37549 1.20053C3.2052 1.03556 2.91785 0.955743 2.5081 0.955743C2.32185 0.955743 2.13028 0.977029 1.93338 1.02492C1.73649 1.07281 1.54492 1.13135 1.35867 1.20585C1.27352 1.2431 1.20967 1.26439 1.17242 1.27503C1.13517 1.28567 1.10856 1.29099 1.08727 1.29099C1.01277 1.29099 0.975524 1.23778 0.975524 1.12603V0.865279C0.975524 0.780136 0.986167 0.716279 1.01277 0.679029C1.03938 0.641779 1.08727 0.604529 1.16177 0.567279C1.34802 0.471493 1.57152 0.391672 1.83227 0.327815C2.09302 0.258636 2.36974 0.226707 2.66242 0.226707C3.29567 0.226707 3.75863 0.370386 4.05663 0.657743C4.34931 0.945101 4.49831 1.38146 4.49831 1.96682V3.69096H4.50896ZM2.34845 4.49982C2.52406 4.49982 2.70499 4.46789 2.89656 4.40403C3.08813 4.34017 3.25842 4.2231 3.4021 4.06346C3.48724 3.96235 3.5511 3.8506 3.58303 3.72289C3.61495 3.59517 3.63624 3.44085 3.63624 3.25992V3.03642C3.48192 2.99917 3.31695 2.96724 3.14667 2.94596C2.97638 2.92467 2.81142 2.91403 2.64645 2.91403C2.28992 2.91403 2.02917 2.98321 1.85356 3.12689C1.67795 3.27057 1.59281 3.47278 1.59281 3.73885C1.59281 3.98896 1.65667 4.17521 1.7897 4.30292C1.91742 4.43596 2.10367 4.49982 2.34845 4.49982ZM6.62156 5.07453C6.52578 5.07453 6.46192 5.05857 6.41935 5.02132C6.37678 4.98939 6.33953 4.91489 6.3076 4.81378L5.05706 0.700315C5.02513 0.593886 5.00917 0.524707 5.00917 0.487457C5.00917 0.402315 5.05174 0.354422 5.13688 0.354422H5.65838C5.75949 0.354422 5.82867 0.370386 5.86592 0.407636C5.90849 0.439565 5.94042 0.514065 5.97235 0.615172L6.86635 4.13796L7.69649 0.615172C7.7231 0.508743 7.75503 0.439565 7.7976 0.407636C7.84017 0.375707 7.91467 0.354422 8.01046 0.354422H8.43617C8.53728 0.354422 8.60646 0.370386 8.64903 0.407636C8.6916 0.439565 8.72885 0.514065 8.75014 0.615172L9.59092 4.18053L10.5115 0.615172C10.5435 0.508743 10.5807 0.439565 10.618 0.407636C10.6605 0.375707 10.7297 0.354422 10.8255 0.354422H11.3204C11.4055 0.354422 11.4534 0.396993 11.4534 0.487457C11.4534 0.514065 11.4481 0.540672 11.4428 0.5726C11.4375 0.604529 11.4268 0.6471 11.4055 0.705636L10.1231 4.8191C10.0911 4.92553 10.0539 4.99471 10.0113 5.02664C9.96874 5.05857 9.89956 5.07985 9.8091 5.07985H9.35146C9.25035 5.07985 9.18117 5.06389 9.1386 5.02664C9.09603 4.98939 9.05878 4.92021 9.03749 4.81378L8.21267 1.38146L7.39317 4.80846C7.36656 4.91489 7.33463 4.98407 7.29206 5.02132C7.24949 5.05857 7.17499 5.07453 7.07921 5.07453H6.62156ZM13.4596 5.21821C13.1829 5.21821 12.9062 5.18628 12.6401 5.12242C12.374 5.05857 12.1665 4.98939 12.0281 4.90957C11.943 4.86167 11.8845 4.80846 11.8632 4.76057C11.8419 4.71267 11.8312 4.65946 11.8312 4.61157V4.34017C11.8312 4.22842 11.8738 4.17521 11.9536 4.17521C11.9856 4.17521 12.0175 4.18053 12.0494 4.19117C12.0814 4.20182 12.1292 4.2231 12.1825 4.24439C12.3634 4.32421 12.5603 4.38807 12.7678 4.43064C12.9807 4.47321 13.1882 4.4945 13.4011 4.4945C13.7363 4.4945 13.9971 4.43596 14.178 4.31889C14.3589 4.20182 14.4547 4.03153 14.4547 3.81335C14.4547 3.66435 14.4068 3.54196 14.311 3.44085C14.2152 3.33974 14.0343 3.24928 13.7736 3.16414L13.002 2.92467C12.6135 2.80228 12.3261 2.62135 12.1505 2.38189C11.9749 2.14774 11.8845 1.88699 11.8845 1.61028C11.8845 1.38678 11.9324 1.18989 12.0281 1.0196C12.1239 0.849315 12.2516 0.700315 12.4113 0.583243C12.5709 0.46085 12.7519 0.370386 12.9647 0.306529C13.1776 0.242672 13.4011 0.216064 13.6352 0.216064C13.7523 0.216064 13.8747 0.221386 13.9917 0.23735C14.1141 0.253314 14.2259 0.2746 14.3376 0.295886C14.4441 0.322493 14.5452 0.3491 14.641 0.381029C14.7367 0.412957 14.8112 0.444886 14.8645 0.476815C14.939 0.519386 14.9922 0.561958 15.0241 0.60985C15.056 0.652422 15.072 0.710958 15.072 0.785458V1.03556C15.072 1.14731 15.0294 1.20585 14.9496 1.20585C14.907 1.20585 14.8379 1.18456 14.7474 1.14199C14.4441 1.00364 14.1035 0.934458 13.7257 0.934458C13.4224 0.934458 13.1829 0.982351 13.0179 1.08346C12.853 1.18456 12.7678 1.33889 12.7678 1.55707C12.7678 1.70607 12.821 1.83378 12.9275 1.93489C13.0339 2.03599 13.2308 2.1371 13.5128 2.22757L14.2685 2.46703C14.6516 2.58942 14.9283 2.75971 15.0933 2.97789C15.2582 3.19607 15.3381 3.44617 15.3381 3.72289C15.3381 3.95171 15.2902 4.15925 15.1997 4.34017C15.1039 4.5211 14.9762 4.68075 14.8112 4.80846C14.6463 4.9415 14.4494 5.03728 14.2206 5.10646C13.9811 5.18096 13.731 5.21821 13.4596 5.21821Z" fill="white"/>
<path fill-rule="evenodd" clip-rule="evenodd" d="M14.4654 7.80447C12.7146 9.09757 10.171 9.78404 7.98385 9.78404C4.91871 9.78404 2.15688 8.65057 0.0708824 6.76679C-0.094082 6.61779 0.0549181 6.41557 0.251811 6.53265C2.5081 7.84172 5.29121 8.63461 8.1701 8.63461C10.1124 8.63461 12.2463 8.23018 14.2099 7.40004C14.5026 7.267 14.7527 7.59161 14.4654 7.80447Z" fill="white"/>
<path fill-rule="evenodd" clip-rule="evenodd" d="M15.1944 6.97434C14.9709 6.68698 13.715 6.83598 13.1456 6.90516C12.9754 6.92644 12.9487 6.77744 13.1031 6.66569C14.1035 5.96326 15.7478 6.16548 15.9394 6.39962C16.131 6.63909 15.8862 8.28341 14.9496 9.07098C14.8059 9.19337 14.6676 9.12952 14.7314 8.96987C14.9443 8.44305 15.4179 7.25637 15.1944 6.97434Z" fill="white"/>
</svg>
