<svg width="16" height="16" viewBox="0 0 16 16" fill="none" xmlns="http://www.w3.org/2000/svg">
<path d="M14.5462 1.71399H7.66681C7.66681 2.53761 7.99399 3.3275 8.57638 3.9099C9.15877 4.49229 9.94866 4.81947 10.7723 4.81947H12.0396V6.04304C12.0407 7.75659 13.4295 9.14544 15.143 9.14656V2.31078C15.143 1.98127 14.8759 1.71399 14.5462 1.71399Z" fill="#DADADA"/>
<path d="M11.1423 5.14172H4.26292C4.26399 6.85527 5.65279 8.24413 7.36639 8.24525H8.63366V9.47273C8.63584 11.1863 10.0256 12.5742 11.7391 12.5742V5.73863C11.7391 5.40901 11.4719 5.14172 11.1423 5.14172Z" fill="#DADADA"/>
<path d="M7.73641 8.5675H0.856979C0.856979 10.2826 2.2474 11.673 3.96246 11.673H5.2337V12.8965C5.23482 14.6085 6.62121 15.9967 8.33325 16V9.16435C8.33325 8.83473 8.06602 8.5675 7.73641 8.5675Z" fill="#DADADA"/>
</svg>
